HIERARCHY
ROOT hip
{
  OFFSET 0 0 0
  CHANNELS 6 Xposition Yposition Zposition Zrotation Yrotation Xrotation
  JOINT abdomen
  {
    OFFSET 0 20.6881 -0.73152
    CHANNELS 3 Zrotation Xrotation Yrotation
    JOINT chest
    {
      OFFSET 0 11.7043 -0.48768
      CHANNELS 3 Zrotation Xrotation Yrotation
      JOINT neck
      {
        OFFSET 0 22.1894 -2.19456
        CHANNELS 3 Zrotation Xrotation Yrotation
        JOINT head
        {
          OFFSET -0.24384 7.07133 1.2192
          CHANNELS 3 Zrotation Xrotation Yrotation
          JOINT leftEye
          {
            OFFSET 4.14528 8.04674 8.04672
            CHANNELS 3 Zrotation Xrotation Yrotation
            End Site
            {
              OFFSET 1 0 0
            }
          }
          JOINT rightEye
          {
            OFFSET -3.6576 8.04674 8.04672
            CHANNELS 3 Zrotation Xrotation Yrotation
            End Site
            {
              OFFSET 1 0 0
            }
          }
        }
      }
      JOINT rCollar
      {
        OFFSET -2.68224 19.2634 -4.8768
        CHANNELS 3 Zrotation Xrotation Yrotation
        JOINT rShldr
        {
          OFFSET -8.77824 -1.95073 1.46304
          CHANNELS 3 Zrotation Xrotation Yrotation
          JOINT rForeArm
          {
            OFFSET -28.1742 -1.7115 0.48768
            CHANNELS 3 Zrotation Xrotation Yrotation
            JOINT rHand
            {
              OFFSET -22.5879 0.773209 7.07136
              CHANNELS 3 Zrotation Xrotation Yrotation
              JOINT rThumb1
              {
                OFFSET -1.2192 -0.487915 3.41376
                CHANNELS 3 Zrotation Xrotation Yrotation
                JOINT rThumb2
                {
                  OFFSET -3.37035 -0.52449 3.41376
                  CHANNELS 3 Zrotation Xrotation Yrotation
                  End Site
                  {
                    OFFSET -1.78271 -1.18214 1.43049
                  }
                }
              }
              JOINT rIndex1
              {
                OFFSET -7.75947 0.938293 5.60832
                CHANNELS 3 Zrotation Xrotation Yrotation
                JOINT rIndex2
                {
                  OFFSET -2.54057 -0.884171 1.56538
                  CHANNELS 3 Zrotation Xrotation Yrotation
                  End Site
                  {
                    OFFSET -1.62519 -0.234802 1.16502
                  }
                }
              }
              JOINT rMid1
              {
                OFFSET -8.24714 1.18213 3.41376
                CHANNELS 3 Zrotation Xrotation Yrotation
                JOINT rMid2
                {
                  OFFSET -3.10165 -0.590103 1.0647
                  CHANNELS 3 Zrotation Xrotation Yrotation
                  End Site
                  {
                    OFFSET -2.48547 -0.328903 0.83742
                  }
                }
              }
              JOINT rRing1
              {
                OFFSET -8.82822 0.546677 1.51678
                CHANNELS 3 Zrotation Xrotation Yrotation
                JOINT rRing2
                {
                  OFFSET -2.60934 -0.819778 -0.0198488
                  CHANNELS 3 Zrotation Xrotation Yrotation
                  End Site
                  {
                    OFFSET -2.33842 -0.294052 0.168128
                  }
                }
              }
              JOINT rPinky1
              {
                OFFSET -8.27202 -0.0477905 -0.4584
                CHANNELS 3 Zrotation Xrotation Yrotation
                JOINT rPinky2
                {
                  OFFSET -1.82734 -0.647385 -0.700984
                  CHANNELS 3 Zrotation Xrotation Yrotation
                  End Site
                  {
                    OFFSET -1.69225 -0.51767 -0.607171
                  }
                }
              }
            }
          }
        }
      }
      JOINT lCollar
      {
        OFFSET 2.68224 19.2634 -4.8768
        CHANNELS 3 Zrotation Xrotation Yrotation
        JOINT lShldr
        {
          OFFSET 8.77824 -1.95073 1.46304
          CHANNELS 3 Zrotation Xrotation Yrotation
          JOINT lForeArm
          {
            OFFSET 28.1742 -1.7115 0.48768
            CHANNELS 3 Zrotation Xrotation Yrotation
            JOINT lHand
            {
              OFFSET 22.5879 0.773209 7.07136
              CHANNELS 3 Zrotation Xrotation Yrotation
              JOINT lThumb1
              {
                OFFSET 1.2192 -0.487915 3.41376
                CHANNELS 3 Zrotation Xrotation Yrotation
                JOINT lThumb2
                {
                  OFFSET 3.37035 -0.52449 3.41376
                  CHANNELS 3 Zrotation Xrotation Yrotation
                  End Site
                  {
                    OFFSET 1.78271 -1.18214 1.43049
                  }
                }
              }
              JOINT lIndex1
              {
                OFFSET 7.75947 0.938293 5.60832
                CHANNELS 3 Zrotation Xrotation Yrotation
                JOINT lIndex2
                {
                  OFFSET 2.54057 -0.884171 1.56538
                  CHANNELS 3 Zrotation Xrotation Yrotation
                  End Site
                  {
                    OFFSET 1.62519 -0.234802 1.16502
                  }
                }
              }
              JOINT lMid1
              {
                OFFSET 8.24714 1.18213 3.41376
                CHANNELS 3 Zrotation Xrotation Yrotation
                JOINT lMid2
                {
                  OFFSET 3.10165 -0.590103 1.0647
                  CHANNELS 3 Zrotation Xrotation Yrotation
                  End Site
                  {
                    OFFSET 2.48547 -0.328903 0.83742
                  }
                }
              }
              JOINT lRing1
              {
                OFFSET 8.82822 0.546677 1.51678
                CHANNELS 3 Zrotation Xrotation Yrotation
                JOINT lRing2
                {
                  OFFSET 2.60934 -0.819778 -0.0198488
                  CHANNELS 3 Zrotation Xrotation Yrotation
                  End Site
                  {
                    OFFSET 2.33842 -0.294052 0.168128
                  }
                }
              }
              JOINT lPinky1
              {
                OFFSET 8.27202 -0.0477905 -0.4584
                CHANNELS 3 Zrotation Xrotation Yrotation
                JOINT lPinky2
                {
                  OFFSET 1.82734 -0.647385 -0.700984
                  CHANNELS 3 Zrotation Xrotation Yrotation
                  End Site
                  {
                    OFFSET 1.69225 -0.51767 -0.607171
                  }
                }
              }
            }
          }
        }
      }
    }
  }
  JOINT rButtock
  {
    OFFSET -8.77824 4.35084 1.2192
    CHANNELS 3 Zrotation Xrotation Yrotation
    JOINT rThigh
    {
      OFFSET 0 -1.70687 -2.19456
      CHANNELS 3 Zrotation Xrotation Yrotation
      JOINT rShin
      {
        OFFSET 0 -36.8199 0.73152
        CHANNELS 3 Zrotation Xrotation Yrotation
        JOINT rFoot
        {
          OFFSET 0.73152 -45.1104 -5.12064
          CHANNELS 3 Zrotation Xrotation Yrotation
          End Site
          {
            OFFSET -1.1221 -3.69964 12.103
          }
        }
      }
    }
  }
  JOINT lButtock
  {
    OFFSET 8.77824 4.35084 1.2192
    CHANNELS 3 Zrotation Xrotation Yrotation
    JOINT lThigh
    {
      OFFSET 0 -1.70687 -2.19456
      CHANNELS 3 Zrotation Xrotation Yrotation
      JOINT lShin
      {
        OFFSET 0 -36.8199 0.73152
        CHANNELS 3 Zrotation Xrotation Yrotation
        JOINT lFoot
        {
          OFFSET -0.73152 -45.1104 -5.12064
          CHANNELS 3 Zrotation Xrotation Yrotation
          End Site
          {
            OFFSET 1.1221 -3.69964 12.103
          }
        }
      }
    }
  }
}
MOTION
Frames:	4
Frame Time:	0.03333
-5.1302000232972205 65.9520034790039 26.675999997649342 -5.6956996768713 64.53159928321838 7.802299931645393 -10.209699869155884 21.85720056295395 -1.1916199699044228 5.144999921321869 -14.018299877643585 -0.11795300175435841 -9.860320016741753 20.11499986052513 -16.451599895954132 24.601899683475494 -33.70479941368103 -26.395900547504425 0.0 0.0 0.0 0.0 0.0 0.0 0.0 0.0 0.0 25.487900376319885 15.430500358343124 30.333799123764038 -26.43050104379654 -45.38829803466797 94.26329612731934 -0.5723409913480282 -20.96810057759285 -3.0878200381994247 8.364509085367899e-10 2.353317540837452e-10 1.984972186619416e-09 1.4068746168049984e-09 4.04156708100345e-10 3.4378899727016687e-09 8.364509085367899e-10 2.353317540837452e-10 1.984972186619416e-09 7.7309102565050125 5.474880114197731 0.41731400415301323 8.364509085367899e-10 2.353317540837452e-10 1.984972186619416e-09 2.905540131032467 0.9651830233633518 0.102901995414868 8.364509085367899e-10 2.353317540837452e-10 1.984972186619416e-09 10.27859978377819 0.7318009994924068 0.025912300043273717 8.364509085367899e-10 2.353317540837452e-10 1.984972186619416e-09 2.221670038998127 -0.733487019315362 -0.2089200052432716 0.0 0.0 0.0 -58.10439884662628 45.99520146846771 -8.089160174131393 27.213400304317474 -43.41929912567139 -90.2981972694397 0.18165799090638757 -12.112700343132019 1.7280699871480465 -5.3717030823463574e-11 -7.955236469570082e-09 4.440607881406322e-09 -1.2789769243681803e-10 -1.3782255336991511e-08 7.673861546209082e-09 -5.3717030823463574e-11 -7.955236469570082e-09 4.440607881406322e-09 -7.7309102565050125 5.474880114197731 -0.41731400415301323 -5.3717030823463574e-11 -7.955236469570082e-09 4.440607881406322e-09 -2.905540131032467 0.9651830233633518 -0.102901995414868 -5.3717030823463574e-11 -7.955236469570082e-09 4.440607881406322e-09 -10.27859978377819 0.7318009994924068 -0.025912300043273717 -5.3717030823463574e-11 -7.955236469570082e-09 4.440607881406322e-09 -2.221670038998127 -0.733487019315362 0.2089200052432716 0.0 0.0 0.0 -19.581500440835953 -60.27119994163513 -23.882000148296356 -2.1934699639678 71.79340124130249 3.0543601512908936 -5.0947098433971405 -9.11458007991314 -17.696799337863922 0.0 0.0 0.0 30.93990057706833 -52.68890082836151 16.756100356578827 13.105100244283676 86.16760075092316 -14.685400128364563 4.720900095999241 -7.149910256266594 20.150100588798523
-5.291300023440272 67.09239959716797 29.30600011209026 -10.650199726223946 65.28850257396698 3.0177999660372734 -9.782350212335587 21.404399424791336 -0.6735259853303432 5.701860040426254 -13.748399913311005 0.08876450126990676 -9.639450162649155 20.329899787902832 -16.668599992990494 24.94000017642975 -32.78799891471863 -26.881798803806305 0.0 0.0 0.0 0.0 0.0 0.0 0.0 0.0 0.0 23.657300770282745 14.020999521017075 28.10879945755005 -26.179599165916443 -45.91889798641205 95.37209987640381 -0.6732150167226791 -22.594400346279144 -3.354419879615307 1.624300693947589e-09 -4.3996806198265404e-10 2.6193447411060333e-09 2.760032202786533e-09 -7.5203843152849e-10 4.5633896661456674e-09 1.624300693947589e-09 -4.3996806198265404e-10 2.6193447411060333e-09 7.7309102565050125 5.474880114197731 0.41731400415301323 1.624300693947589e-09 -4.3996806198265404e-10 2.6193447411060333e-09 2.905540131032467 0.9651830233633518 0.102901995414868 1.624300693947589e-09 -4.3996806198265404e-10 2.6193447411060333e-09 10.27859978377819 0.7318009994924068 0.025912300043273717 1.624300693947589e-09 -4.3996806198265404e-10 2.6193447411060333e-09 2.221670038998127 -0.733487019315362 -0.2089200052432716 0.0 0.0 0.0 -57.4398010969162 45.74510157108307 -6.949140205979347 27.316201329231262 -43.10729920864105 -89.69390094280243 0.12752099661156535 -10.202600061893463 1.4490300603210926 -4.604316927725449e-11 -5.402398528531194e-09 3.509512680466287e-09 -1.0487610779819079e-10 -9.36211108637508e-09 6.077698344597593e-09 -4.604316927725449e-11 -5.402398528531194e-09 3.509512680466287e-09 -7.7309102565050125 5.474880114197731 -0.41731400415301323 -4.604316927725449e-11 -5.402398528531194e-09 3.509512680466287e-09 -2.905540131032467 0.9651830233633518 -0.102901995414868 -4.604316927725449e-11 -5.402398528531194e-09 3.509512680466287e-09 -10.27859978377819 0.7318009994924068 -0.025912300043273717 -4.604316927725449e-11 -5.402398528531194e-09 3.509512680466287e-09 -2.221670038998127 -0.733487019315362 0.2089200052432716 0.0 0.0 0.0 -13.242099434137344 -57.794700264930725 -21.41059935092926 -1.844280045479536 69.28519785404205 2.603750042617321 -4.949110150337219 -8.58162984251976 -17.60199934244156 0.0 0.0 0.0 30.711700916290283 -56.504799127578735 20.7886004447937 120.90199828147888 88.86459946632385 -122.26400256156921 5.507080033421516 -9.045019671320915 19.32439997792244
-5.4173000254668295 68.26349639892578 32.20500004151836 -16.395399570465088 66.02099776268005 -2.4816000647842884 -9.001469984650612 20.819200426340103 -0.2584139909595251 6.238189861178398 -13.438100516796112 0.2782109985128045 -9.3036999553442 20.4543998837471 -16.881599575281143 25.22409975528717 -31.61790132522583 -27.39380031824112 0.0 0.0 0.0 0.0 0.0 0.0 0.0 0.0 0.0 22.42850035429001 12.661000192165375 25.241400003433228 -25.93150019645691 -46.40400230884552 96.41100525856018 -0.8440719824284315 -25.232100784778595 -3.7946300581097603 4.015987542516086e-10 -3.0183855415089056e-10 1.2994405551580712e-09 6.752998160663992e-10 -5.218225851422176e-10 2.240767571493052e-09 4.015987542516086e-10 -3.0183855415089056e-10 1.2994405551580712e-09 7.7309102565050125 5.474880114197731 0.41731400415301323 4.015987542516086e-10 -3.0183855415089056e-10 1.2994405551580712e-09 2.905540131032467 0.9651830233633518 0.102901995414868 4.015987542516086e-10 -3.0183855415089056e-10 1.2994405551580712e-09 10.27859978377819 0.7318009994924068 0.025912300043273717 4.015987542516086e-10 -3.0183855415089056e-10 1.2994405551580712e-09 2.221670038998127 -0.733487019315362 -0.2089200052432716 0.0 0.0 0.0 -55.35689949989319 45.730199217796326 -6.905929818749428 27.413200736045837 -42.79860109090805 -89.09989893436432 0.10713300202041864 -9.240949675440788 1.3104600179940462 1.2533973858808167e-10 -3.7346126191550866e-10 5.115907697472721e-10 2.1231016944511794e-10 -6.548361852765083e-10 9.00399754755199e-10 1.2533973858808167e-10 -3.7346126191550866e-10 5.115907697472721e-10 -7.7309102565050125 5.474880114197731 -0.41731400415301323 1.2533973858808167e-10 -3.7346126191550866e-10 5.115907697472721e-10 -2.905540131032467 0.9651830233633518 -0.102901995414868 1.2533973858808167e-10 -3.7346126191550866e-10 5.115907697472721e-10 -10.27859978377819 0.7318009994924068 -0.025912300043273717 1.2533973858808167e-10 -3.7346126191550866e-10 5.115907697472721e-10 -2.221670038998127 -0.733487019315362 0.2089200052432716 0.0 0.0 0.0 -7.981419861316681 -55.62479853630066 -20.217000246047974 -1.714869998395443 67.88620054721832 2.3362799920141697 -4.137119986116886 -8.114350140094757 -14.728999435901642 0.0 0.0 0.0 31.07580006122589 -59.397701025009155 25.36270022392273 161.6480040550232 86.6729986667633 -162.7370023727417 5.185739994049072 -10.363000184297562 16.030699610710144
-5.4651000262238085 69.34989929199219 35.159999965224415 -24.372699558734894 66.32710218429565 -10.22370032966137 -7.867350205779076 20.102499425411224 0.05392559745814651 6.753870025277138 -13.0874003469944 0.45037600211799145 -8.854169771075249 20.48859938979149 -17.09009975194931 25.46310067176819 -30.19850045442581 -27.935300767421722 0.0 0.0 0.0 0.0 0.0 0.0 0.0 0.0 0.0 21.756499707698822 11.31450042128563 21.732400059700012 -25.69200038909912 -46.848299503326416 97.37160086631775 -1.139370035380125 -28.87690097093582 -4.442749992012978 -2.836770818248624e-09 6.548361852765083e-10 -1.9952040020143613e-09 -4.84988049720414e-09 1.099920154956635e-09 -3.5299763112561777e-09 -2.836770818248624e-09 6.548361852765083e-10 -1.9952040020143613e-09 7.7309102565050125 5.474880114197731 0.41731400415301323 -2.836770818248624e-09 6.548361852765083e-10 -1.9952040020143613e-09 2.905540131032467 0.9651830233633518 0.102901995414868 -2.836770818248624e-09 6.548361852765083e-10 -1.9952040020143613e-09 10.27859978377819 0.7318009994924068 0.025912300043273717 -2.836770818248624e-09 6.548361852765083e-10 -1.9952040020143613e-09 2.221670038998127 -0.733487019315362 -0.2089200052432716 0.0 0.0 0.0 -51.857598423957825 45.951701402664185 -7.958090007305145 27.504599690437317 -42.4931001663208 -88.51540267467499 0.1063859963323921 -9.22818973660469 1.3085200265049934 4.604316927725449e-10 7.1315753302769735e-09 -4.553157850750722e-09 8.211031854443718e-10 1.2344685274001677e-08 -7.868266038713045e-09 4.604316927725449e-10 7.1315753302769735e-09 -4.553157850750722e-09 -7.7309102565050125 5.474880114197731 -0.41731400415301323 4.604316927725449e-10 7.1315753302769735e-09 -4.553157850750722e-09 -2.905540131032467 0.9651830233633518 -0.102901995414868 4.604316927725449e-10 7.1315753302769735e-09 -4.553157850750722e-09 -10.27859978377819 0.7318009994924068 -0.025912300043273717 4.604316927725449e-10 7.1315753302769735e-09 -4.553157850750722e-09 -2.221670038998127 -0.733487019315362 0.2089200052432716 0.0 0.0 0.0 -3.523700125515461 -53.806400299072266 -20.049399733543396 -1.729699932038784 67.59689748287201 2.177239917218685 -2.7381000481545925 -7.632660269737244 -9.086119830608368 0.0 0.0 0.0 31.77080065011978 -61.36689841747284 30.23499995470047 164.5270013809204 85.8582991361618 -165.28600215911865 3.7116099894046783 -11.028900146484375 10.240600258111954
